<svg width="25" height="24" viewBox="0 0 25 24" fill="none" xmlns="http://www.w3.org/2000/svg">
<path d="M12.5 22C6.74689 22 2.08334 17.523 2.08334 12C2.08334 6.477 6.74689 2 12.5 2C18.2531 2 22.9167 6.477 22.9167 12C22.9167 17.523 18.2531 22 12.5 22ZM11.4583 15V17H13.5417V15H11.4583ZM13.5417 13.355C14.3788 13.1128 15.0975 12.59 15.5668 11.8817C16.0362 11.1735 16.2249 10.3271 16.0987 9.49647C15.9725 8.66588 15.5397 7.90644 14.8792 7.35646C14.2187 6.80647 13.3744 6.50254 12.5 6.5C11.6571 6.49975 10.8401 6.77989 10.1881 7.29277C9.53615 7.80564 9.08942 8.51954 8.92397 9.313L10.9677 9.706C11.0257 9.42743 11.1649 9.1704 11.3691 8.96482C11.5734 8.75923 11.8342 8.61354 12.1213 8.54471C12.4084 8.47587 12.7099 8.48671 12.9909 8.57597C13.2718 8.66523 13.5205 8.82924 13.7082 9.04891C13.8958 9.26858 14.0146 9.53489 14.0507 9.81684C14.0869 10.0988 14.0388 10.3848 13.9123 10.6416C13.7857 10.8984 13.5858 11.1154 13.3358 11.2673C13.0858 11.4193 12.7959 11.5 12.5 11.5C12.2237 11.5 11.9588 11.6054 11.7634 11.7929C11.5681 11.9804 11.4583 12.2348 11.4583 12.5V14H13.5417V13.355Z" fill="#292929"/>
</svg>
